<?xml version="1.0"?>
<svg xmlns="http://www.w3.org/2000/svg" xmlns:xlink="http://www.w3.org/1999/xlink" xmlns:svgjs="http://svgjs.com/svgjs" version="1.1" width="256" height="256" x="0" y="0" viewBox="0 0 24 24" style="enable-background:new 0 0 512 512" xml:space="preserve"><g><path d="M8.7,18H3c-1.493,0-3-1.134-3-3.666V9.294A9.418,9.418,0,0,1,8.349.023a9,9,0,0,1,9.628,9.628A9.419,9.419,0,0,1,8.7,18ZM20,9.08h-.012c0,.237,0,.474-.012.712C19.59,15.2,14.647,19.778,9.084,19.981l0,.015A8,8,0,0,0,16,24h5a3,3,0,0,0,3-3V16A8,8,0,0,0,20,9.08Z" fill="#2a3855" data-original="#000000"/></g></svg>
