<svg viewBox="0 0 6.35 6.35" xmlns="http://www.w3.org/2000/svg"><path d="M1.058 234.105c-.586 0-1.058.472-1.058 1.058v4.233c0 .587.472 1.059 1.058 1.059h4.234c.586 0 1.058-.472 1.058-1.059v-4.233c0-.586-.472-1.058-1.058-1.058zm.795 1.058h2.644c.435 0 .795.358.795.793v2.647c0 .435-.36.792-.795.792H1.853a.798.798 0 0 1-.795-.792v-2.647c0-.435.36-.793.795-.793zm0 .53a.258.258 0 0 0-.266.263v2.647c0 .15.114.263.266.263h2.644a.259.259 0 0 0 .266-.263v-2.647a.259.259 0 0 0-.266-.263zm2.38.264a.265.265 0 0 1 .265.264.265.265 0 0 1-.265.265.265.265 0 0 1-.264-.265.265.265 0 0 1 .264-.264zm-1.058.265c.581 0 1.058.477 1.058 1.058 0 .582-.477 1.06-1.058 1.06a1.063 1.063 0 0 1-1.059-1.06c0-.581.478-1.058 1.059-1.058zm0 .53a.526.526 0 0 0-.53.528c0 .296.235.53.53.53.295 0 .53-.234.53-.53a.525.525 0 0 0-.53-.529zM1.058 290.65c-.586 0-1.058.472-1.058 1.058v4.234C0 296.528.472 297 1.058 297h4.234c.586 0 1.058-.472 1.058-1.058v-4.234c0-.586-.472-1.058-1.058-1.058zm1.392 1.915c.335 0 .655.133.891.37l-.356.356a.756.756 0 1 0 .18.786H2.45v-.504h1.26v.252c0 .693-.567 1.26-1.26 1.26-.692 0-1.26-.567-1.26-1.26 0-.693.568-1.26 1.26-1.26zm1.932.59h.359v.418h.418v.36h-.418v.418h-.36v-.419h-.418v-.36h.419z" transform="translate(0 -290.65)" opacity="1" fill="#2a3855" fill-opacity="1" stroke="none" stroke-width=".26458335" stroke-linecap="butt" stroke-linejoin="miter" stroke-miterlimit="4" stroke-dasharray="none" stroke-dashoffset="0" stroke-opacity="1" class="fill-333333"></path></svg>