<svg viewBox="0 0 256 256" xmlns="http://www.w3.org/2000/svg"><path fill="none" d="M0 0h256v256H0z"></path><path fill="none" stroke="#2a3855" stroke-linecap="round" stroke-linejoin="round" stroke-width="12" d="M88 232h80M78.7 167A79.5 79.5 0 0 1 48 104.5C47.8 61.1 82.7 25 126.1 24a80 80 0 0 1 51.3 142.9A24.2 24.2 0 0 0 168 186v6a8 8 0 0 1-8 8H96a8 8 0 0 1-8-8v-6a24.4 24.4 0 0 0-9.3-19Z" class="stroke-000000"></path><path d="M136.1 56.8a47.9 47.9 0 0 1 39.2 39.1" fill="none" stroke="#2a3855" stroke-linecap="round" stroke-linejoin="round" stroke-width="12" class="stroke-000000"></path></svg>